<?xml version="1.0" encoding="UTF-8"?>
<svg id="Layer_2" data-name="Layer 2" xmlns="http://www.w3.org/2000/svg" viewBox="0 0 822.13 117.89">
  <defs>
    <style>
      .cls-1 {
        fill: #3a7bff;
      }
    </style>
  </defs>
  <g id="Layer_2-2" data-name="Layer 2">
    <g>
      <path class="cls-1" d="m168.45,14.54h14.04v69.12h38.43v11.5h-52.47V14.54Z"/>
      <path d="m227.68,80.07c0-11.1,8.15-15.83,21.21-18.2,9.01-1.68,14.45-2.25,14.45-8.26,0-4.74-3.58-7.4-9.48-7.4-6.3,0-10.75,3.01-10.98,8.9h-13.29c.23-12.66,10.57-20.28,24.5-20.28,12.83,0,22.77,6.41,22.77,18.78v26.93c0,2.6.64,4.27,3.7,4.27.81,0,1.91-.11,2.72-.4v10.4c-1.04.46-3.47,1.1-6.24,1.1-7.34,0-11.15-4.33-12.08-10.46l1.15.23c-3.81,6.65-11.04,10.98-20.05,10.98-10.57,0-18.38-5.84-18.38-16.59Zm35.65-2.66v-11.79c-2.83,2.72-5.61,3.76-12.02,5.26-6.53,1.56-10,3.47-10,8.21,0,4.45,3.01,6.3,7.57,6.3,6.36,0,11.79-3.24,14.45-7.98Z"/>
      <path d="m304.55,84.52h1.21v10.63h-13.12V13.96h13.64v32.3l-.87-.81c3.41-6.82,9.54-10.63,17.28-10.63,14.5,0,23.93,13.06,23.93,31.09s-10.11,30.74-23.75,30.74c-8.21,0-15.08-4.51-18.32-12.13Zm28.26-18.67c0-11.62-4.85-19.53-13.23-19.53s-13.29,7.97-13.29,18.95v.81c0,11.33,5.14,19.42,13.29,19.42s13.23-7.98,13.23-19.65Z"/>
      <path d="m354.54,65.68c0-17.68,10.34-30.86,27.56-30.86s27.1,11.67,27.1,30.05v4.39h-40.8c.35,9.13,5.61,16.01,14.62,16.01,5.89,0,11.38-2.6,12.71-7.8h12.77c-2.2,11.5-12.48,19.19-25.95,19.19-17.05,0-28.03-13.12-28.03-30.98Zm40.86-6.3c-.52-7.74-5.72-13.18-13.35-13.18-8.03,0-12.94,5.66-13.64,13.18h26.99Z"/>
      <path d="m420.3,13.96h13.64v81.19h-13.64V13.96Z"/>
      <path class="cls-1" d="m470.76,14.54h14.85l21.21,65.94,21.21-65.94h14.91l-27.45,80.62h-17.34l-27.39-80.62Z"/>
      <path d="m552.47,14.54h13.87v13.7h-13.87v-13.7Zm.11,21.79h13.64v58.83h-13.64v-58.83Z"/>
      <path d="m577.79,65.68c0-17.68,10.34-30.86,27.56-30.86s27.1,11.67,27.1,30.05v4.39h-40.8c.35,9.13,5.61,16.01,14.62,16.01,5.89,0,11.38-2.6,12.71-7.8h12.77c-2.2,11.5-12.48,19.19-25.95,19.19-17.05,0-28.03-13.12-28.03-30.98Zm40.86-6.3c-.52-7.74-5.72-13.18-13.35-13.18-8.03,0-12.94,5.66-13.64,13.18h26.99Z"/>
      <path d="m637.2,36.33h13.87l7.17,29.36c1.21,5.09,2.89,11.67,3.76,17.51h-1.79c1.04-6.13,2.54-12.54,3.76-17.51l7.28-29.36h13.18l7.28,29.36c1.16,5.03,2.77,11.85,3.76,17.51h-1.73c.87-5.84,2.54-12.42,3.76-17.51l7.05-29.36h13.93l-17.1,58.83h-13.23l-8.55-35.19c-.92-3.58-1.85-9.01-2.25-12.71h1.1c-.52,3.7-1.45,9.13-2.31,12.71l-8.61,35.19h-13.23l-17.05-58.83Z"/>
      <path d="m723.42,65.68c0-17.68,10.34-30.86,27.56-30.86s27.1,11.67,27.1,30.05v4.39h-40.8c.35,9.13,5.61,16.01,14.62,16.01,5.89,0,11.38-2.6,12.71-7.8h12.77c-2.2,11.5-12.48,19.19-25.95,19.19-17.05,0-28.03-13.12-28.03-30.98Zm40.86-6.3c-.52-7.74-5.72-13.18-13.35-13.18-8.03,0-12.94,5.66-13.64,13.18h26.99Z"/>
      <path d="m789.19,36.33h13.06v11.04l-.4-.64c2.89-7.8,8.15-11.73,15.08-11.73,1.96,0,3.87.17,5.2.58v12.54c-1.56-.35-3.47-.64-5.37-.64-9.01,0-13.93,5.43-13.93,13.99v33.69h-13.64v-58.83Z"/>
    </g>
    <g>
      <path class="cls-1" d="m14.82,54.81l35.29-20.08v8.58l-17.38,9.58c-4.76,2.65-9.06,4.93-13.19,6.57v.18c4.08,1.73,8.53,4.29,13.14,7.03l17.43,10.4v8.49L14.82,63.57v-8.76Z"/>
      <path class="cls-1" d="m110.12,65.33l-35.28,20.09v-8.58s17.38-9.59,17.38-9.59c4.76-2.65,9.06-4.93,13.19-6.58v-.18c-4.08-1.73-8.53-4.29-13.14-7.02l-17.43-10.4v-8.49s35.29,21.98,35.29,21.98v8.76Z"/>
      <path class="cls-1" d="m62.44,2.83v6.42s-53.13.01-53.13.01v21.25s-6.45,0-6.45,0V2.84s59.57-.02,59.57-.02Z"/>
      <path class="cls-1" d="m62.71,115.34v-6.42s53.13-.01,53.13-.01v-21.25s6.45,0,6.45,0v27.66s-59.57.02-59.57.02Z"/>
      <circle class="cls-1" cx="62.45" cy="59.17" r="11.61"/>
      <circle class="cls-1" cx="61.18" cy="5.87" r="5.63"/>
      <circle class="cls-1" cx="5.63" cy="31.88" r="5.63"/>
      <circle class="cls-1" cx="5.63" cy="5.63" r="5.63"/>
      <path class="cls-1" d="m62.59,115.06v-6.42s53.13-.01,53.13-.01v-21.25s6.45,0,6.45,0v27.66s-59.57.02-59.57.02Z"/>
      <circle class="cls-1" cx="63.85" cy="112.01" r="5.63"/>
      <circle class="cls-1" cx="119.4" cy="86.01" r="5.63"/>
      <circle class="cls-1" cx="119.4" cy="112.26" r="5.63"/>
      <circle class="cls-1" cx="75.56" cy="80.72" r="5.63"/>
      <circle class="cls-1" cx="75.56" cy="38.72" r="5.63"/>
      <circle class="cls-1" cx="50.56" cy="80.72" r="5.63"/>
      <circle class="cls-1" cx="50.56" cy="38.72" r="5.63"/>
      <circle class="cls-1" cx="108.56" cy="60.72" r="5.63"/>
      <circle class="cls-1" cx="15.56" cy="59.72" r="5.63"/>
    </g>
  </g>
</svg>