<svg id="Layer_1" data-name="Layer 1" xmlns="http://www.w3.org/2000/svg" xmlns:xlink="http://www.w3.org/1999/xlink" viewBox="0 0 745.97 160.63"><defs><style>.cls-1{fill:url(#linear-gradient);}.cls-2{fill:#f4f4f4;}.cls-3{fill:url(#linear-gradient-2);}.cls-4{fill:url(#linear-gradient-3);}.cls-5{fill:url(#linear-gradient-4);}.cls-6{fill:url(#linear-gradient-5);}.cls-7{fill:url(#linear-gradient-6);}</style><linearGradient id="linear-gradient" x1="383.15" y1="20.56" x2="422.58" y2="20.56" gradientUnits="userSpaceOnUse"><stop offset="0" stop-color="#f3f3f3"/><stop offset="1" stop-color="#ccc"/></linearGradient><linearGradient id="linear-gradient-2" x1="48.24" y1="142.06" x2="180.48" y2="142.06" xlink:href="#linear-gradient"/><linearGradient id="linear-gradient-3" x1="158.42" y1="141.73" x2="313.34" y2="141.73" xlink:href="#linear-gradient"/><linearGradient id="linear-gradient-4" x1="254.31" y1="72.02" x2="392.2" y2="72.02" xlink:href="#linear-gradient"/><linearGradient id="linear-gradient-5" x1="383.15" y1="95.06" x2="422.58" y2="95.06" xlink:href="#linear-gradient"/><linearGradient id="linear-gradient-6" x1="255.96" y1="98.99" x2="320.83" y2="98.99" gradientUnits="userSpaceOnUse"><stop offset="0" stop-color="#9cd1a1"/><stop offset="0.62" stop-color="#15b14c"/></linearGradient></defs><circle class="cls-1" cx="402.86" cy="20.56" r="19.71"/><path class="cls-2" d="M498.83,130.2V70.63h12.36q13.37,0,19.4,2.14A26,26,0,0,1,544.13,83.3,32,32,0,0,1,549,101.16a31.33,31.33,0,0,1-3.87,15.76,24.82,24.82,0,0,1-10,10q-6.18,3.24-17.31,3.24Zm5.71-5.63h6.89q12.34,0,17.13-1.53a19.76,19.76,0,0,0,10.57-7.87A24.23,24.23,0,0,0,543,101.26a25.53,25.53,0,0,0-4.17-14.73,21,21,0,0,0-11.63-8.37q-5.58-1.71-18.42-1.7h-4.22Z" transform="translate(-48.24 -69.78)"/><path class="cls-2" d="M603.53,86.14V130.2h-5.59v-7.57a24.32,24.32,0,0,1-8,6.52,22.33,22.33,0,0,1-25.68-4.6,22.75,22.75,0,0,1-6.62-16.5,22.34,22.34,0,0,1,6.68-16.28A21.81,21.81,0,0,1,580.4,85a20.81,20.81,0,0,1,9.83,2.31,22.39,22.39,0,0,1,7.71,6.93v-8.1Zm-22.66,4.33a17.11,17.11,0,0,0-15.11,8.86,17.83,17.83,0,0,0,0,17.8,17.43,17.43,0,0,0,6.41,6.62,16.81,16.81,0,0,0,8.64,2.36,17.75,17.75,0,0,0,8.82-2.34,16.4,16.4,0,0,0,6.41-6.36,18.08,18.08,0,0,0,2.25-9,17.54,17.54,0,0,0-5-12.78A16.67,16.67,0,0,0,580.87,90.47Z" transform="translate(-48.24 -69.78)"/><path class="cls-2" d="M621.23,69.78h5.67V86.14h9V91h-9V130.2h-5.67V91h-7.74v-4.9h7.74Z" transform="translate(-48.24 -69.78)"/><path class="cls-2" d="M688.3,86.14V130.2h-5.59v-7.57a24.22,24.22,0,0,1-8,6.52,22.33,22.33,0,0,1-25.68-4.6,22.75,22.75,0,0,1-6.62-16.5,22.34,22.34,0,0,1,6.68-16.28A21.81,21.81,0,0,1,665.17,85,20.81,20.81,0,0,1,675,87.31a22.3,22.3,0,0,1,7.71,6.93v-8.1Zm-22.66,4.33a17.11,17.11,0,0,0-15.11,8.86,17.83,17.83,0,0,0,0,17.8,17.43,17.43,0,0,0,6.41,6.62,16.81,16.81,0,0,0,8.64,2.36,17.75,17.75,0,0,0,8.82-2.34,16.4,16.4,0,0,0,6.41-6.36,18.08,18.08,0,0,0,2.25-9,17.54,17.54,0,0,0-5-12.78A16.67,16.67,0,0,0,665.64,90.47Z" transform="translate(-48.24 -69.78)"/><path class="cls-2" d="M498,153.57h6v59.58h-6Z" transform="translate(-48.24 -69.78)"/><path class="cls-2" d="M516.65,169.09h5.67V177a23.73,23.73,0,0,1,7.54-6.78,18.48,18.48,0,0,1,9-2.25,15.66,15.66,0,0,1,8.77,2.51,15,15,0,0,1,5.65,6.77q1.82,4.25,1.82,13.24v22.68h-5.67v-21c0-5.08-.21-8.46-.63-10.17a11.24,11.24,0,0,0-3.78-6.58,11.43,11.43,0,0,0-7.29-2.2,14,14,0,0,0-9.22,3.4,16,16,0,0,0-5.37,8.42q-.81,3.28-.81,12v16.16h-5.67Z" transform="translate(-48.24 -69.78)"/><path class="cls-2" d="M566.55,169.09h5.75v50.7c0,3.7-.67,6.4-2,8.08a6.62,6.62,0,0,1-5.49,2.53,18.53,18.53,0,0,1-6.48-1.37v-5.11a9,9,0,0,0,4.09,1.18,3.74,3.74,0,0,0,3.44-1.9q.69-1.22.69-5.07Zm2.8-18.15a4.47,4.47,0,0,1,3.3,1.38,4.71,4.71,0,0,1,0,6.6,4.66,4.66,0,0,1-8-3.28,4.54,4.54,0,0,1,1.36-3.32A4.44,4.44,0,0,1,569.35,150.94Z" transform="translate(-48.24 -69.78)"/><path class="cls-2" d="M621.19,198.53,626,201a26.14,26.14,0,0,1-5.43,7.45,21.75,21.75,0,0,1-6.94,4.32,24.25,24.25,0,0,1-8.71,1.47q-10.78,0-16.87-7.06a23.86,23.86,0,0,1-6.08-16,23.6,23.6,0,0,1,5.15-15A21.05,21.05,0,0,1,604.56,168q11.28,0,18,8.55,4.79,6,4.87,15.06H587.77a18,18,0,0,0,4.91,12.59,15.66,15.66,0,0,0,11.72,4.91,18.85,18.85,0,0,0,6.55-1.17,17.17,17.17,0,0,0,5.41-3.11A26.26,26.26,0,0,0,621.19,198.53Zm0-11.87a18.84,18.84,0,0,0-3.31-7.25,15.64,15.64,0,0,0-5.73-4.37,17.54,17.54,0,0,0-7.51-1.66,16.17,16.17,0,0,0-11.15,4.17q-3.4,3-5.15,9.11Z" transform="translate(-48.24 -69.78)"/><path class="cls-2" d="M680.77,178.24l-4.5,2.79a18.84,18.84,0,0,0-15.9-7.73A18.38,18.38,0,0,0,647,178.48a16.91,16.91,0,0,0-5.32,12.58,17.87,17.87,0,0,0,2.45,9.06,17.1,17.1,0,0,0,6.72,6.59,20.29,20.29,0,0,0,25.42-5.39l4.5,3a21.3,21.3,0,0,1-8.49,7.38,27.07,27.07,0,0,1-12.13,2.62q-10.44,0-17.33-6.64a21.61,21.61,0,0,1-6.89-16.16,23,23,0,0,1,3.22-11.88A22.72,22.72,0,0,1,648,171,25.83,25.83,0,0,1,660.6,168a26.91,26.91,0,0,1,8.44,1.34,23.43,23.43,0,0,1,6.91,3.48A19,19,0,0,1,680.77,178.24Z" transform="translate(-48.24 -69.78)"/><path class="cls-2" d="M696.6,152.72h5.67v16.37h9V174h-9v39.16H696.6V174h-7.73v-4.9h7.73Z" transform="translate(-48.24 -69.78)"/><path class="cls-2" d="M740.63,168a21.85,21.85,0,0,1,16.88,7.37,23.67,23.67,0,0,1-.35,32.06,21.59,21.59,0,0,1-16.53,6.9q-10.14,0-16.58-6.9a23.61,23.61,0,0,1-.34-32A21.81,21.81,0,0,1,740.63,168Zm0,5.55a16.34,16.34,0,0,0-12.15,5.22,17.47,17.47,0,0,0-5.08,12.64,17.94,17.94,0,0,0,2.31,8.91,16.41,16.41,0,0,0,6.26,6.38,17.79,17.79,0,0,0,17.32,0,16.48,16.48,0,0,0,6.26-6.38,17.94,17.94,0,0,0,2.31-8.91,17.45,17.45,0,0,0-5.1-12.64A16.38,16.38,0,0,0,740.61,173.5Z" transform="translate(-48.24 -69.78)"/><path class="cls-2" d="M771.94,169.09h5.79v6.43a20.5,20.5,0,0,1,5.47-5.69,10.79,10.79,0,0,1,6-1.88,10.31,10.31,0,0,1,5,1.5l-3,4.78a8,8,0,0,0-3-.77,8.23,8.23,0,0,0-5.47,2.33,14.68,14.68,0,0,0-4,7.23q-1,3.76-1,15.23v14.9h-5.79Z" transform="translate(-48.24 -69.78)"/><path class="cls-3" d="M140.79,207.84c13-15.72,26.26-32.06,39.63-48.79l.06-27.78H118.06v27.58h27.58v15.92s-3.87,5.87-23.06,5.87-36.47-13.52-36.47-39.15,20.91-36.28,36.27-36.28a34.37,34.37,0,0,1,9.13,1.36l21.6-29.18a85.66,85.66,0,0,0-31.43-5.65c-36.72,0-73.44,26-73.44,70.13s32.39,70.52,73.7,70.52a112.39,112.39,0,0,0,16-1.14Z" transform="translate(-48.24 -69.78)"/><path class="cls-4" d="M262.38,137.39,284.07,170l29.27,42.17q-11.93-.27-22-.27-12.21,0-23.72.27-8.62-14-17.17-25.68t-12.65-18.25q-5.56,7.32-14.85,18.59t-20,25.34q-11.64-.27-21.06-.27-10.53,0-23.42.27,29.12-35.22,59.1-73.3l-12.65-19.14q-6.18-9.36-16.42-24l-17-24.39q15.21.28,24.34.28,12,0,21.43-.28,6.42,9.89,14.7,21.64l10.42,15.31Z" transform="translate(-48.24 -69.78)"/><polygon class="cls-5" points="331.95 1.97 294.38 1.97 254.31 97.42 279.45 133.64 313.14 47.23 351.95 142.07 392.2 142.07 331.95 1.97"/><polygon class="cls-6" points="383.15 46.94 383.15 77.41 410.29 140.53 411.44 143.18 422.58 143.18 422.58 46.94 383.15 46.94"/><path class="cls-7" d="M263.15,125.46a6.48,6.48,0,0,1,.8.12c11.38,2.67,20.89-.5,28.5-9.4,4.93-5.76,8.11-12.5,11.06-19.39,4.08-9.52,8.77-18.65,17.32-25.28-1.49,0-2.84-.1-4.18,0-3.52.32-7,.61-10.54,1.12-10.35,1.52-20.3,4.31-29.24,9.95a44.15,44.15,0,0,0-16,16.48A42.26,42.26,0,0,0,256,114.66c0,.12,0,.24,0,.36Zm9.06-29.22A60.73,60.73,0,0,1,293,84.79a81.12,81.12,0,0,0-32.65,33.94C262.43,110.23,265.26,102.18,272.21,96.24Z" transform="translate(-48.24 -69.78)"/></svg>